# xmcd CD database file
# Copyright (C) 1993-1996 Ti Kan
#
# Track frame offsets:
#	150
#	13575
#	27737
#	41120
#	55222
#	69595
#	81515
#	94202
#	104265
#	122700
#	135325
#	146185
#	169722
#	184062
#	196707
#	214962
#	235652
#	255200
#
# Disc length: 3573 seconds
#
# Revision: 1
# Processed by: cddbd v1.4b41PL1 Copyright (c) Steve Scherf et al.
# Submitted via: CDValet v3.01 - Copyright (c) 1997 Greg Leichner
#
DISCID=000df312
DTITLE=Jimmy Yancey - Eternal Blues
DYEAR=1900
DGENRE=
TTITLE0=Two o' clock blues
TTITLE1=Lucille's lament
TTITLE2=Steady rock blues
TTITLE3=South side stuff
TTITLE4=Yancey's getaway
TTITLE5=Yancey special
TTITLE6=Salute to pinetop
TTITLE7=Blues for Albert
TTITLE8=Monkey woman blues
TTITLE9=Santa Fe' blues
TTITLE10=Yancey's bugle call
TTITLE11=Four o' clock blues
TTITLE12=35th and Dearborne
TTITLE13=How long blues
TTITLE14=White Sox stromp
TTITLE15=Make me a pallet on the floor
TTITLE16=Eternal blues
TTITLE17=Shave 'em dry
EXTD=
EXTT0=
EXTT1=
EXTT2=
EXTT3=
EXTT4=
EXTT5=
EXTT6=
EXTT7=
EXTT8=
EXTT9=
EXTT10=
EXTT11=
EXTT12=
EXTT13=
EXTT14=
EXTT15=
EXTT16=
EXTT17=
PLAYORDER=
